<?xml version="1.0" encoding="UTF-8" standalone="no"?>
<!-- Created with Inkscape (http://www.inkscape.org/) -->

<svg
   version="1.1"
   id="svg2"
   width="512"
   height="512"
   viewBox="0 0 512 512"
   sodipodi:docname="faviconA.svg"
   inkscape:version="1.2.2 (b0a8486541, 2022-12-01)"
   xmlns:inkscape="http://www.inkscape.org/namespaces/inkscape"
   xmlns:sodipodi="http://sodipodi.sourceforge.net/DTD/sodipodi-0.dtd"
   xmlns="http://www.w3.org/2000/svg"
   xmlns:svg="http://www.w3.org/2000/svg">
  <defs
     id="defs6" />
  <sodipodi:namedview
     id="namedview4"
     pagecolor="#ffffff"
     bordercolor="#666666"
     borderopacity="1.0"
     inkscape:showpageshadow="2"
     inkscape:pageopacity="0.0"
     inkscape:pagecheckerboard="0"
     inkscape:deskcolor="#d1d1d1"
     showgrid="false"
     inkscape:zoom="0.4609375"
     inkscape:cx="254.91525"
     inkscape:cy="263.59322"
     inkscape:window-width="1440"
     inkscape:window-height="829"
     inkscape:window-x="0"
     inkscape:window-y="0"
     inkscape:window-maximized="1"
     inkscape:current-layer="g8" />
  <g
     inkscape:groupmode="layer"
     inkscape:label="Image"
     id="g8">
    <path
       style="fill:#000000;stroke:none"
       d="M 242,18.4244 C 182.683,26.2126 129.523,44.6562 86.0895,88.0895 65.0762,109.103 47.7102,134.694 36.0008,162 -9.17569,267.351 26.5651,392.717 122,457.255 c 24.528,16.587 52.257,28.048 81,34.861 28.035,6.644 57.539,7.436 86,3.602 C 402.526,480.425 490.964,382.106 495.961,268 500.885,155.558 422.916,52.3485 314,25.1266 291.423,19.4839 265.263,15.37 242,18.4244 m 0,31.8611 c 24.446,-2.8843 51.668,1.4397 75,8.6906 32.33,10.0471 61.613,27.5922 85.91,51.1939 73.785,71.671 80.985,194.174 18.076,274.83 -14.532,18.632 -32.001,35.223 -51.986,47.946 -26.966,17.168 -57.279,27.962 -89,31.769 -24.289,2.914 -49.196,1.256 -73,-4.369 -21.47,-5.074 -42.361,-13.917 -61,-25.665 C 49.775,374.033 20.0496,246.057 78.6011,149 92.2158,126.432 110.797,106.354 132,90.7346 165.001,66.4233 201.789,55.0299 242,50.2855 M 175,162.439 c -41.378,6.513 -39,46.312 -39,78.561 0,35.397 -12.487,96.313 31,110.641 9.106,3 18.553,2.359 28,2.359 8.607,0 19.872,1.886 27.999,-1.344 11.687,-4.645 13.07,-20.758 2.961,-27.802 -14.325,-9.982 -37.931,4.682 -51.917,-5.507 C 165.442,313.081 168,300.282 168,291 v -58 c 0,-8.821 -1.585,-19.388 0.394,-28 5.123,-22.289 43.419,-4.305 57.566,-13.879 10.24,-6.929 8.318,-23.151 -2.961,-27.893 C 211.63,158.449 187.132,160.529 175,162.439 M 311,279 c -8.491,-16.915 -10.538,-39.623 -15.127,-58 -3.781,-15.147 -4.848,-40.422 -14.522,-52.895 -8.935,-11.521 -26.779,-4.815 -28.151,8.895 -1.184,11.828 5.816,26.474 8.376,38 6.759,30.432 14.49,60.756 22.051,91 3.485,13.941 4.953,47.813 24.373,47.813 18.966,0 23.374,-35.934 28,-49.813 10.164,-30.491 20.966,-61.116 29.859,-92 3.035,-10.54 10.799,-23.909 9.916,-35 -1.114,-14.013 -19.236,-19.832 -28.217,-8.895 -4.737,5.768 -6.169,14.896 -8.278,21.895 -3.843,12.759 -8.734,25.193 -12.421,38 -4.85,16.845 -13.292,33.621 -15.859,51 z"
       id="path188"
       inkscape:transform-center-x="68.935249"
       inkscape:transform-center-y="-107.03708" />
  </g>
</svg>
